#!OML:ASF H:\Pregnant\Project 1\Capture day 1\Session 1\femalepreg.ASF
:FULLY-SPECIFIED
:DEGREES
671
root -5.52123 15.7475 -16.3525 22.6651 -19.1476 -2.74656
lowerback -13.9273 0.235776 -2.12089
upperback -3.6931 0.698194 -2.62981
thorax 3.91851 0.319474 -1.43968
lowerneck -14.6644 4.54899 3.90737
upperneck 24.3358 5.81338 -1.76104
head 10.3741 2.79662 -0.514946
rclavicle 5.56597e-014 -1.90833e-014
rhumerus -38.4049 23.4686 -89.0316
rradius 53.0023
rwrist -17.7421
rhand -22.3252 -15.091
rfingers 7.12502
rthumb 4.09478 -45.0314
lclavicle 5.56597e-014 -1.90833e-014
lhumerus -40.6708 7.75837 60.823
lradius 18.8712
lwrist 33.1483
lhand -30.0642 -1.90111
lfingers 7.12502
lthumb -3.37942 28.0519
rfemur -23.1878 6.74228 21.2707
rtibia 55.225
rfoot 6.73344 -0.594258
rtoes -28.3183
lfemur -50.814 -5.14859 -21.5471
ltibia 38.7742
lfoot -8.46117 -0.95545
ltoes -8.70054
672
root -5.58323 15.7318 -16.2195 22.2064 -18.803 -2.33648
lowerback -13.3566 0.134725 -3.14787
upperback -3.57451 0.697169 -2.89273
thorax 3.72224 0.315215 -1.13726
lowerneck -14.5961 4.40938 3.80399
upperneck 24.1375 5.5361 -1.35643
head 10.264 2.71 -0.395977
rclavicle -7.15625e-015 -7.95139e-015
rhumerus -40.1954 23.0448 -89.4588
rradius 52.2331
rwrist -17.3841
rhand -23.3622 -16.1158
rfingers 7.12502
rthumb 3.09333 -46.0731
lclavicle -7.15625e-015 -7.95139e-015
lhumerus -39.5388 6.3904 62.595
lradius 19.2391
lwrist 33.1578
lhand -29.4994 -1.66126
lfingers 7.12502
lthumb -2.83404 28.2997
rfemur -24.4024 6.45355 20.9971
rtibia 57.797
rfoot 9.31417 -0.0253125
rtoes -23.7426
lfemur -49.9761 -5.58578 -21.8861
ltibia 38.9999
lfoot -9.19418 -0.795077
ltoes -8.52044
673
root -5.64326 15.7177 -16.0878 21.8764 -18.4619 -1.99428
lowerback -12.8675 0.0724267 -4.06787
upperback -3.49118 0.721848 -3.12284
thorax 3.53269 0.325076 -0.857766
lowerneck -14.5117 4.25859 3.67104
upperneck 23.9715 5.26281 -0.986655
head 10.1647 2.61767 -0.28403
rclavicle -3.10104e-014 -7.95139e-015
rhumerus -41.9771 22.5999 -89.869
rradius 51.395
rwrist -17.1713
rhand -24.3099 -17.1831
rfingers 7.12502
rthumb 2.17808 -47.1518
lclavicle -3.10104e-014 -7.95139e-015
lhumerus -38.4248 5.09949 64.287
lradius 19.5912
lwrist 32.864
lhand -28.9865 -1.68085
lfingers 7.12502
lthumb -2.3387 28.2861
rfemur -25.7659 6.23049 20.7444
rtibia 60.2872
rfoot 11.3835 0.619765
rtoes -19.6157
lfemur -49.2513 -5.93205 -22.1911
ltibia 39.1994
lfoot -9.91933 -0.679989
ltoes -8.37335
674
root -5.70132 15.705 -15.9561 21.6925 -18.1189 -1.73999
lowerback -12.4936 0.0353758 -4.85909
upperback -3.44286 0.758002 -3.31044
thorax 3.36885 0.341898 -0.605584
lowerneck -14.4333 4.10507 3.51334
upperneck 23.8614 5.00225 -0.649464
head 10.089 2.52432 -0.177051
rclavicle -4.17448e-015 5.08889e-014
rhumerus -43.7175 22.1523 -90.2606
rradius 50.4598
rwrist -17.0739
rhand -25.1206 -18.2424
rfingers 7.12502
rthumb 1.39513 -48.2176
lclavicle -4.17448e-015 5.08889e-014
lhumerus -37.3471 3.90936 65.9065
lradius 19.9493
lwrist 32.3361
lhand -28.5802 -1.87283
lfingers 7.12502
lthumb -1.94629 28.098
rfemur -27.2739 6.05491 20.5361
rtibia 62.6753
rfoot 12.7836 1.3157
rtoes -16.534
lfemur -48.6754 -6.19771 -22.4295
ltibia 39.4183
lfoot -10.639 -0.61544
ltoes -8.26193
675
root -5.75783 15.694 -15.8232 21.6406 -17.7735 -1.57068
lowerback -12.2435 0.00788057 -5.53178
upperback -3.42241 0.791868 -3.44854
thorax 3.24338 0.35836 -0.369333
lowerneck -14.3721 3.95661 3.324
upperneck 23.8166 4.7637 -0.336117
head 10.0417 2.43479 -0.069161
rclavicle -2.3059e-014 1.90833e-014
rhumerus -45.4009 21.727 -90.6306
rradius 49.4313
rwrist -17.0748
rhand -25.7898 -19.2332
rfingers 7.12502
rthumb 0.748769 -49.2116
lclavicle -2.3059e-014 1.90833e-014
lhumerus -36.3223 2.84991 67.4582
lradius 20.329
lwrist 31.6488
lhand -28.3311 -2.19557
lfingers 7.12502
lthumb -1.70568 27.7774
rfemur -28.8962 5.9106 20.377
rtibia 64.9337
rfoot 13.4385 2.01254
rtoes -14.7855
lfemur -48.2305 -6.4049 -22.5911
ltibia 39.6671
lfoot -11.354 -0.57165
ltoes -8.2377
676
root -5.81342 15.6856 -15.6878 21.6872 -17.4254 -1.4684
lowerback -12.0844 -0.0212627 -6.10803
upperback -3.43154 0.81242 -3.54265
thorax 3.1372 0.369103 -0.143576
lowerneck -14.3545 3.82366 3.13006
upperneck 23.8608 4.55423 -0.0495115
head 10.0372 2.35454 0.0359703
rclavicle -4.05521e-014 1.59028e-015
rhumerus -47.028 21.3192 -90.9857
rradius 48.3069
rwrist -17.1347
rhand -26.2683 -20.031
rfingers 7.12502
rthumb 0.2866 -50.0105
lclavicle -4.05521e-014 1.59028e-015
lhumerus -35.3805 1.92951 68.936
lradius 20.76
lwrist 30.8597
lhand -28.226 -2.46108
lfingers 7.12502
lthumb -1.60417 27.5126
rfemur -30.5884 5.78491 20.2603
rtibia 67.0323
rfoot 13.3553 2.65708
rtoes -14.3595
lfemur -47.8608 -6.59096 -22.6781
ltibia 39.9207
lfoot -12.0466 -0.51758
ltoes -8.3507
677
root -5.86875 15.6808 -15.5493 21.7834 -17.0775 -1.40367
lowerback -11.9999 -0.0574775 -6.61687
upperback -3.44406 0.819198 -3.60744
thorax 3.06915 0.372896 0.0728573
lowerneck -14.3827 3.70502 2.93168
upperneck 23.9665 4.36798 0.22381
head 10.0652 2.28273 0.142054
rclavicle 2.38542e-015 3.02153e-014
rhumerus -48.5562 20.9109 -91.3163
rradius 47.0812
rwrist -17.207
rhand -26.5579 -20.5461
rfingers 7.12502
rthumb 0.00687702 -50.5258
lclavicle 2.38542e-015 3.02153e-014
lhumerus -34.4972 1.13953 70.3398
lradius 21.2506
lwrist 30.0391
lhand -28.2146 -2.76892
lfingers 7.12502
lthumb -1.59319 27.2049
rfemur -32.2962 5.67368 20.1658
rtibia 68.9478
rfoot 12.6944 3.21334
rtoes -14.6753
lfemur -47.4927 -6.78257 -22.713
ltibia 40.1392
lfoot -12.7045 -0.436025
ltoes -8.61463
678
root -5.92467 15.6801 -15.4091 21.9101 -16.7139 -1.34151
lowerback -11.9677 -0.1076 -7.0982
upperback -3.45493 0.808008 -3.65206
thorax 3.03236 0.367369 0.292221
lowerneck -14.4456 3.59616 2.72944
upperneck 24.1036 4.19752 0.487863
head 10.1125 2.21672 0.248911
rclavicle -8.74653e-015 4.77083e-015
rhumerus -49.9813 20.4771 -91.6029
rradius 45.776
rwrist -17.2493
rhand -26.6811 -20.7677
rfingers 7.12502
rthumb -0.112094 -50.7474
lclavicle -8.74653e-015 4.77083e-015
lhumerus -33.6657 0.450597 71.687
lradius 21.8245
lwrist 29.262
lhand -28.2607 -3.19586
lfingers 7.12502
lthumb -1.63771 26.7776
rfemur -34.0146 5.55926 20.0732
rtibia 70.6741
rfoot 11.6225 3.62
rtoes -15.3787
lfemur -47.1035 -6.99876 -22.723
ltibia 40.2923
lfoot -13.3173 -0.341665
ltoes -8.97222
679
root -5.98164 15.6829 -15.2678 22.0536 -16.3266 -1.26597
lowerback -11.9642 -0.173747 -7.56314
upperback -3.46516 0.776217 -3.68966
thorax 3.01344 0.35136 0.506589
lowerneck -14.5403 3.50069 2.55274
upperneck 24.2604 4.04291 0.733359
head 10.1752 2.15824 0.348227
rclavicle -2.06736e-014 4.77083e-015
rhumerus -51.2986 19.9896 -91.8422
rradius 44.3962
rwrist -17.2193
rhand -26.6178 -20.6872
rfingers 7.12502
rthumb -0.0509428 -50.6669
lclavicle -2.06736e-014 4.77083e-015
lhumerus -32.8805 -0.174629 72.9805
lradius 22.4844
lwrist 28.6067
lhand -28.3515 -3.6239
lfingers 7.12502
lthumb -1.72541 26.3489
rfemur -35.7422 5.43967 19.9732
rtibia 72.2131
rfoot 10.3353 3.82617
rtoes -16.1583
lfemur -46.6853 -7.22502 -22.732
ltibia 40.3718
lfoot -13.8944 -0.265524
ltoes -9.37686
680
root -6.04001 15.6874 -15.1264 22.2153 -15.909 -1.17743
lowerback -11.9719 -0.258949 -8.01511
upperback -3.48275 0.717989 -3.71696
thorax 2.99506 0.322578 0.720459
lowerneck -14.6497 3.42117 2.40836
upperneck 24.4218 3.91016 0.94646
head 10.2451 2.10913 0.43423
rclavicle 1.19271e-014 -1.11319e-014
rhumerus -52.5127 19.451 -92.0225
rradius 42.9535
rwrist -17.0844
rhand -26.3719 -20.3532
rfingers 7.12502
rthumb 0.186585 -50.3328
lclavicle 1.19271e-014 -1.11319e-014
lhumerus -32.1521 -0.756908 74.2339
lradius 23.2269
lwrist 28.1243
lhand -28.4668 -4.00754
lfingers 7.12502
lthumb -1.83672 25.9643
rfemur -37.4874 5.31967 19.8684
rtibia 73.5711
rfoot 8.95642 3.81482
rtoes -16.864
lfemur -46.2576 -7.42844 -22.7507
ltibia 40.391
lfoot -14.4548 -0.255393
ltoes -9.72854
681
root -6.09969 15.6918 -14.9856 22.4072 -15.458 -1.08843
lowerback -11.9991 -0.359792 -8.43533
upperback -3.50273 0.637298 -3.7361
thorax 2.98768 0.282626 0.921797
lowerneck -14.7759 3.35623 2.30001
upperneck 24.5699 3.79582 1.12926
head 10.3158 2.06842 0.506334
rclavicle -4.77083e-015 -2.38542e-014
rhumerus -53.6077 18.8534 -92.132
rradius 41.4627
rwrist -16.8269
rhand -25.9551 -19.8592
rfingers 7.12502
rthumb 0.589134 -49.8381
lclavicle -4.77083e-015 -2.38542e-014
lhumerus -31.4635 -1.32669 75.4555
lradius 24.0507
lwrist 27.8642
lhand -28.6092 -4.31728
lfingers 7.12502
lthumb -1.9743 25.6533
rfemur -39.2594 5.21431 19.7644
rtibia 74.7462
rfoot 7.55045 3.59632
rtoes -17.4476
lfemur -45.8513 -7.57078 -22.7786
ltibia 40.3707
lfoot -15.0049 -0.354012
ltoes -10.0006
